<?xml version="1.0" standalone="no"?>
<!DOCTYPE svg PUBLIC "-//W3C//DTD SVG 20010904//EN"
 "http://www.w3.org/TR/2001/REC-SVG-20010904/DTD/svg10.dtd">
<svg version="1.0" xmlns="http://www.w3.org/2000/svg"
 width="260.000000pt" height="260.000000pt" viewBox="0 0 260.000000 260.000000"
 preserveAspectRatio="xMidYMid meet">
<metadata>
Created by potrace 1.11, written by Peter Selinger 2001-2013
</metadata>
<g transform="translate(0.000000,260.000000) scale(0.100000,-0.100000)"
fill="#000000" stroke="none">
<path d="M2108 2404 c-3 -3 -113 -6 -244 -7 -219 -2 -243 -4 -284 -23 -111
-51 -181 -164 -180 -293 0 -36 -1 -73 -1 -81 -1 -30 0 -476 1 -505 5 -141 107
-264 240 -290 14 -3 122 -6 240 -7 207 -1 217 -2 253 -25 52 -33 69 -73 69
-157 1 -39 -2 -85 -5 -101 -8 -47 -38 -118 -59 -141 -10 -11 -18 -23 -18 -27
0 -3 -19 -24 -42 -46 -44 -41 -132 -91 -171 -97 -12 -2 -31 -5 -42 -8 -11 -2
-60 -5 -108 -5 -87 -1 -90 -2 -122 -34 l-33 -33 0 -124 c0 -68 4 -134 9 -147
18 -47 61 -61 178 -58 122 3 200 17 291 53 71 28 161 77 200 108 79 63 210
214 210 243 0 6 5 11 10 11 6 0 10 5 10 11 0 6 6 25 14 42 73 160 74 173 74
877 0 707 3 679 -89 770 -70 69 -125 88 -267 89 -62 0 -116 2 -121 5 -4 3 -11
3 -13 0z"/>
<path d="M688 2389 c-242 -38 -455 -186 -576 -400 -26 -46 -86 -188 -83 -196
1 -2 1 -4 0 -5 -3 -11 -10 -51 -16 -93 -8 -57 -8 -1230 0 -1260 3 -11 8 -32
12 -48 4 -15 11 -27 17 -27 5 0 6 -4 3 -10 -8 -13 89 -106 129 -124 64 -30
109 -33 451 -32 341 2 351 2 400 24 64 29 137 106 161 168 17 45 19 81 19 414
l0 365 -28 57 c-31 64 -91 121 -157 150 -40 18 -70 20 -275 22 -255 2 -272 6
-316 68 -19 26 -23 45 -23 112 0 45 2 97 5 117 16 95 125 229 223 274 62 29
96 36 206 39 112 4 105 2 136 31 26 25 27 28 29 155 3 142 -9 181 -59 200 -28
10 -190 10 -258 -1z"/>
</g>
</svg>
